<?xml version="1.0" encoding="UTF-8" standalone="no"?>
<svg
   xmlns:dc="http://purl.org/dc/elements/1.1/"
   xmlns:cc="http://creativecommons.org/ns#"
   xmlns:rdf="http://www.w3.org/1999/02/22-rdf-syntax-ns#"
   xmlns:svg="http://www.w3.org/2000/svg"
   xmlns="http://www.w3.org/2000/svg"
   xmlns:sodipodi="http://sodipodi.sourceforge.net/DTD/sodipodi-0.dtd"
   xmlns:inkscape="http://www.inkscape.org/namespaces/inkscape"
   height="297mm"
   version="1.1"
   viewBox="0 0 210 297"
   width="210mm"
   id="svg2097"
   sodipodi:docname="planetarium_base1.svg"
   inkscape:version="0.92.3 (unknown)">
  <metadata
     id="metadata2101">
    <rdf:RDF>
      <cc:Work
         rdf:about="">
        <dc:format>image/svg+xml</dc:format>
        <dc:type
           rdf:resource="http://purl.org/dc/dcmitype/StillImage" />
        <dc:title></dc:title>
      </cc:Work>
    </rdf:RDF>
  </metadata>
  <sodipodi:namedview
     pagecolor="#ffffff"
     bordercolor="#666666"
     borderopacity="1"
     objecttolerance="10"
     gridtolerance="10"
     guidetolerance="10"
     inkscape:pageopacity="0"
     inkscape:pageshadow="2"
     inkscape:window-width="1855"
     inkscape:window-height="1056"
     id="namedview2099"
     showgrid="false"
     showguides="false"
     inkscape:zoom="0.10177995"
     inkscape:cx="196.31055"
     inkscape:cy="-856.23333"
     inkscape:window-x="65"
     inkscape:window-y="24"
     inkscape:window-maximized="1"
     inkscape:current-layer="svg2097" />
  <defs
     id="defs1478" />
  <g
     id="pipe_168_0"
     transform="translate(12.170836,11.641664)">
    <path
       d="m 0,278 -3,-3 V 113 l 3,-3"
       id="path1633"
       inkscape:connector-curvature="0"
       style="fill:#ffffff;stroke:#000000;stroke-width:0.1" />
    <path
       d="M 0,110 H 4 V 278 H 0 Z"
       id="path1635"
       inkscape:connector-curvature="0"
       style="fill:#000000;stroke:#a9a9a9;stroke-width:0.1" />
    <path
       d="M 4,110 H 8 V 278 H 4 Z"
       id="path1637"
       inkscape:connector-curvature="0"
       style="fill:#000000;stroke:#a9a9a9;stroke-width:0.1" />
    <path
       d="m 8,110 h 4 V 278 H 8 Z"
       id="path1639"
       inkscape:connector-curvature="0"
       style="fill:#000000;stroke:#a9a9a9;stroke-width:0.1" />
    <path
       d="m 12,110 h 4 v 168 h -4 z"
       id="path1641"
       inkscape:connector-curvature="0"
       style="fill:#000000;stroke:#a9a9a9;stroke-width:0.1" />
  </g>
  <g
     id="pipe_168_1"
     transform="translate(8.4666671,11.641664)">
    <path
       d="m 25,278 -3,-3 V 113 l 3,-3"
       id="path1644"
       inkscape:connector-curvature="0"
       style="fill:#ffffff;stroke:#000000;stroke-width:0.1" />
    <path
       d="m 25,110 h 4 v 168 h -4 z"
       id="path1646"
       inkscape:connector-curvature="0"
       style="fill:#000000;stroke:#a9a9a9;stroke-width:0.1" />
    <path
       d="m 29,110 h 4 v 168 h -4 z"
       id="path1648"
       inkscape:connector-curvature="0"
       style="fill:#000000;stroke:#a9a9a9;stroke-width:0.1" />
    <path
       d="m 33,110 h 4 v 168 h -4 z"
       id="path1650"
       inkscape:connector-curvature="0"
       style="fill:#000000;stroke:#a9a9a9;stroke-width:0.1" />
    <path
       d="m 37,110 h 4 v 168 h -4 z"
       id="path1652"
       inkscape:connector-curvature="0"
       style="fill:#000000;stroke:#a9a9a9;stroke-width:0.1" />
  </g>
  <g
     id="pipe_160_0"
     transform="rotate(90,158.90611,117.53667)">
    <path
       d="m 50,270 -3,-3 V 113 l 3,-3"
       id="path1655"
       inkscape:connector-curvature="0"
       style="fill:#ffffff;stroke:#000000;stroke-width:0.1" />
    <path
       d="m 50,110 h 4 v 160 h -4 z"
       id="path1657"
       inkscape:connector-curvature="0"
       style="fill:#000000;stroke:#a9a9a9;stroke-width:0.1" />
    <path
       d="m 54,110 h 4 v 160 h -4 z"
       id="path1659"
       inkscape:connector-curvature="0"
       style="fill:#000000;stroke:#a9a9a9;stroke-width:0.1" />
    <path
       d="m 58,110 h 4 v 160 h -4 z"
       id="path1661"
       inkscape:connector-curvature="0"
       style="fill:#000000;stroke:#a9a9a9;stroke-width:0.1" />
    <path
       d="m 62,110 h 4 v 160 h -4 z"
       id="path1663"
       inkscape:connector-curvature="0"
       style="fill:#000000;stroke:#a9a9a9;stroke-width:0.1" />
  </g>
  <g
     id="pipe_160_1"
     transform="rotate(90,160.49361,115.94917)">
    <path
       d="m 75,270 -3,-3 V 113 l 3,-3"
       id="path1666"
       inkscape:connector-curvature="0"
       style="fill:#ffffff;stroke:#000000;stroke-width:0.1" />
    <path
       d="m 75,110 h 4 v 160 h -4 z"
       id="path1668"
       inkscape:connector-curvature="0"
       style="fill:#000000;stroke:#a9a9a9;stroke-width:0.1" />
    <path
       d="m 79,110 h 4 v 160 h -4 z"
       id="path1670"
       inkscape:connector-curvature="0"
       style="fill:#000000;stroke:#a9a9a9;stroke-width:0.1" />
    <path
       d="m 83,110 h 4 v 160 h -4 z"
       id="path1672"
       inkscape:connector-curvature="0"
       style="fill:#000000;stroke:#a9a9a9;stroke-width:0.1" />
    <path
       d="m 87,110 h 4 v 160 h -4 z"
       id="path1674"
       inkscape:connector-curvature="0"
       style="fill:#000000;stroke:#a9a9a9;stroke-width:0.1" />
  </g>
  <g
     id="pipe_160_2"
     transform="rotate(90,162.08111,114.36167)">
    <path
       d="m 100,270 -3,-3 V 113 l 3,-3"
       id="path1677"
       inkscape:connector-curvature="0"
       style="fill:#ffffff;stroke:#000000;stroke-width:0.1" />
    <path
       d="m 100,110 h 4 v 160 h -4 z"
       id="path1679"
       inkscape:connector-curvature="0"
       style="fill:#000000;stroke:#a9a9a9;stroke-width:0.1" />
    <path
       d="m 104,110 h 4 v 160 h -4 z"
       id="path1681"
       inkscape:connector-curvature="0"
       style="fill:#000000;stroke:#a9a9a9;stroke-width:0.1" />
    <path
       d="m 108,110 h 4 v 160 h -4 z"
       id="path1683"
       inkscape:connector-curvature="0"
       style="fill:#000000;stroke:#a9a9a9;stroke-width:0.1" />
    <path
       d="m 112,110 h 4 v 160 h -4 z"
       id="path1685"
       inkscape:connector-curvature="0"
       style="fill:#000000;stroke:#a9a9a9;stroke-width:0.1" />
  </g>
  <g
     id="pipe_140_0"
     transform="translate(-70.379169,39.641664)">
    <path
       d="m 125,250 -3,-3 V 113 l 3,-3"
       id="path1688"
       inkscape:connector-curvature="0"
       style="fill:#ffffff;stroke:#000000;stroke-width:0.1" />
    <path
       d="m 125,110 h 4 v 140 h -4 z"
       id="path1690"
       inkscape:connector-curvature="0"
       style="fill:#000000;stroke:#a9a9a9;stroke-width:0.1" />
    <path
       d="m 129,110 h 4 v 140 h -4 z"
       id="path1692"
       inkscape:connector-curvature="0"
       style="fill:#000000;stroke:#a9a9a9;stroke-width:0.1" />
    <path
       d="m 133,110 h 4 v 140 h -4 z"
       id="path1694"
       inkscape:connector-curvature="0"
       style="fill:#000000;stroke:#a9a9a9;stroke-width:0.1" />
    <path
       d="m 137,110 h 4 v 140 h -4 z"
       id="path1696"
       inkscape:connector-curvature="0"
       style="fill:#000000;stroke:#a9a9a9;stroke-width:0.1" />
  </g>
  <g
     id="pipe_140_1"
     transform="translate(-73.554171,39.641664)">
    <path
       d="m 150,250 -3,-3 V 113 l 3,-3"
       id="path1699"
       inkscape:connector-curvature="0"
       style="fill:#ffffff;stroke:#000000;stroke-width:0.1" />
    <path
       d="m 150,110 h 4 v 140 h -4 z"
       id="path1701"
       inkscape:connector-curvature="0"
       style="fill:#000000;stroke:#a9a9a9;stroke-width:0.1" />
    <path
       d="m 154,110 h 4 v 140 h -4 z"
       id="path1703"
       inkscape:connector-curvature="0"
       style="fill:#000000;stroke:#a9a9a9;stroke-width:0.1" />
    <path
       d="m 158,110 h 4 v 140 h -4 z"
       id="path1705"
       inkscape:connector-curvature="0"
       style="fill:#000000;stroke:#a9a9a9;stroke-width:0.1" />
    <path
       d="m 162,110 h 4 v 140 h -4 z"
       id="path1707"
       inkscape:connector-curvature="0"
       style="fill:#000000;stroke:#a9a9a9;stroke-width:0.1" />
  </g>
  <g
     id="angle_24_0"
     transform="translate(-98.554171,12.995829)">
    <path
       d="m 175,110 h 4 v 24 h -4 z"
       id="path1710"
       inkscape:connector-curvature="0"
       style="fill:#000000;stroke:#a9a9a9;stroke-width:0.1" />
    <path
       d="m 179,110 h 4 v 24 h -4 z"
       id="path1712"
       inkscape:connector-curvature="0"
       style="fill:#000000;stroke:#a9a9a9;stroke-width:0.1" />
    <path
       d="m 183,110 h 4 v 24 h -4 z"
       id="path1714"
       inkscape:connector-curvature="0"
       style="fill:#000000;stroke:#a9a9a9;stroke-width:0.1" />
    <path
       d="m 187,110 h 4 v 24 h -4 z"
       id="path1716"
       inkscape:connector-curvature="0"
       style="fill:#000000;stroke:#a9a9a9;stroke-width:0.1" />
  </g>
  <g
     id="angle_24_1"
     transform="translate(-141.67085,12.995829)">
    <path
       d="m 200,110 h 4 v 24 h -4 z"
       id="path1719"
       inkscape:connector-curvature="0"
       style="fill:#000000;stroke:#a9a9a9;stroke-width:0.1" />
    <path
       d="m 204,110 h 4 v 24 h -4 z"
       id="path1721"
       inkscape:connector-curvature="0"
       style="fill:#000000;stroke:#a9a9a9;stroke-width:0.1" />
    <path
       d="m 208,110 h 4 v 24 h -4 z"
       id="path1723"
       inkscape:connector-curvature="0"
       style="fill:#000000;stroke:#a9a9a9;stroke-width:0.1" />
    <path
       d="m 212,110 h 4 v 24 h -4 z"
       id="path1725"
       inkscape:connector-curvature="0"
       style="fill:#000000;stroke:#a9a9a9;stroke-width:0.1" />
  </g>
  <g
     id="angle_24_2"
     transform="translate(-197.72804,-17.89865)">
    <path
       d="m 225,110 h 4 v 24 h -4 z"
       id="path1728"
       inkscape:connector-curvature="0"
       style="fill:#000000;stroke:#a9a9a9;stroke-width:0.1" />
    <path
       d="m 229,110 h 4 v 24 h -4 z"
       id="path1730"
       inkscape:connector-curvature="0"
       style="fill:#000000;stroke:#a9a9a9;stroke-width:0.1" />
    <path
       d="m 233,110 h 4 v 24 h -4 z"
       id="path1732"
       inkscape:connector-curvature="0"
       style="fill:#000000;stroke:#a9a9a9;stroke-width:0.1" />
    <path
       d="m 237,110 h 4 v 24 h -4 z"
       id="path1734"
       inkscape:connector-curvature="0"
       style="fill:#000000;stroke:#a9a9a9;stroke-width:0.1" />
  </g>
  <g
     id="angle_24_3"
     transform="translate(-204.0822,-17.89865)">
    <path
       d="m 250,110 h 4 v 24 h -4 z"
       id="path1737"
       inkscape:connector-curvature="0"
       style="fill:#000000;stroke:#a9a9a9;stroke-width:0.1" />
    <path
       d="m 254,110 h 4 v 24 h -4 z"
       id="path1739"
       inkscape:connector-curvature="0"
       style="fill:#000000;stroke:#a9a9a9;stroke-width:0.1" />
    <path
       d="m 258,110 h 4 v 24 h -4 z"
       id="path1741"
       inkscape:connector-curvature="0"
       style="fill:#000000;stroke:#a9a9a9;stroke-width:0.1" />
    <path
       d="m 262,110 h 4 v 24 h -4 z"
       id="path1743"
       inkscape:connector-curvature="0"
       style="fill:#000000;stroke:#a9a9a9;stroke-width:0.1" />
  </g>
  <g
     id="angle_177_0"
     transform="translate(-180.44586,2.6416664)">
    <path
       d="m 275,110 h 4 v 177 h -4 z"
       id="path1746"
       inkscape:connector-curvature="0"
       style="fill:#000000;stroke:#a9a9a9;stroke-width:0.1" />
    <path
       d="m 279,110 h 4 v 177 h -4 z"
       id="path1748"
       inkscape:connector-curvature="0"
       style="fill:#000000;stroke:#a9a9a9;stroke-width:0.1" />
    <path
       d="m 283,110 h 4 v 177 h -4 z"
       id="path1750"
       inkscape:connector-curvature="0"
       style="fill:#000000;stroke:#a9a9a9;stroke-width:0.1" />
    <path
       d="m 287,110 h 4 v 177 h -4 z"
       id="path1752"
       inkscape:connector-curvature="0"
       style="fill:#000000;stroke:#a9a9a9;stroke-width:0.1" />
  </g>
  <g
     id="angle_177_1"
     transform="translate(-187.32504,2.6416664)">
    <path
       d="m 300,110 h 4 v 177 h -4 z"
       id="path1755"
       inkscape:connector-curvature="0"
       style="fill:#000000;stroke:#a9a9a9;stroke-width:0.1" />
    <path
       d="m 304,110 h 4 v 177 h -4 z"
       id="path1757"
       inkscape:connector-curvature="0"
       style="fill:#000000;stroke:#a9a9a9;stroke-width:0.1" />
    <path
       d="m 308,110 h 4 v 177 h -4 z"
       id="path1759"
       inkscape:connector-curvature="0"
       style="fill:#000000;stroke:#a9a9a9;stroke-width:0.1" />
    <path
       d="m 312,110 h 4 v 177 h -4 z"
       id="path1761"
       inkscape:connector-curvature="0"
       style="fill:#000000;stroke:#a9a9a9;stroke-width:0.1" />
  </g>
  <g
     id="angle_177_2"
     transform="translate(-194.20422,2.6416664)">
    <path
       d="m 325,110 h 4 v 177 h -4 z"
       id="path1764"
       inkscape:connector-curvature="0"
       style="fill:#000000;stroke:#a9a9a9;stroke-width:0.1" />
    <path
       d="m 329,110 h 4 v 177 h -4 z"
       id="path1766"
       inkscape:connector-curvature="0"
       style="fill:#000000;stroke:#a9a9a9;stroke-width:0.1" />
    <path
       d="m 333,110 h 4 v 177 h -4 z"
       id="path1768"
       inkscape:connector-curvature="0"
       style="fill:#000000;stroke:#a9a9a9;stroke-width:0.1" />
    <path
       d="m 337,110 h 4 v 177 h -4 z"
       id="path1770"
       inkscape:connector-curvature="0"
       style="fill:#000000;stroke:#a9a9a9;stroke-width:0.1" />
  </g>
  <g
     id="angle_177_3"
     transform="translate(-201.0834,2.6416664)">
    <path
       d="m 350,110 h 4 v 177 h -4 z"
       id="path1773"
       inkscape:connector-curvature="0"
       style="fill:#000000;stroke:#a9a9a9;stroke-width:0.1" />
    <path
       d="m 354,110 h 4 v 177 h -4 z"
       id="path1775"
       inkscape:connector-curvature="0"
       style="fill:#000000;stroke:#a9a9a9;stroke-width:0.1" />
    <path
       d="m 358,110 h 4 v 177 h -4 z"
       id="path1777"
       inkscape:connector-curvature="0"
       style="fill:#000000;stroke:#a9a9a9;stroke-width:0.1" />
    <path
       d="m 362,110 h 4 v 177 h -4 z"
       id="path1779"
       inkscape:connector-curvature="0"
       style="fill:#000000;stroke:#a9a9a9;stroke-width:0.1" />
  </g>
  <g
     id="angle_177_4"
     transform="translate(-207.96258,2.6416664)">
    <path
       d="m 375,110 h 4 v 177 h -4 z"
       id="path1782"
       inkscape:connector-curvature="0"
       style="fill:#000000;stroke:#a9a9a9;stroke-width:0.1" />
    <path
       d="m 379,110 h 4 v 177 h -4 z"
       id="path1784"
       inkscape:connector-curvature="0"
       style="fill:#000000;stroke:#a9a9a9;stroke-width:0.1" />
    <path
       d="m 383,110 h 4 v 177 h -4 z"
       id="path1786"
       inkscape:connector-curvature="0"
       style="fill:#000000;stroke:#a9a9a9;stroke-width:0.1" />
    <path
       d="m 387,110 h 4 v 177 h -4 z"
       id="path1788"
       inkscape:connector-curvature="0"
       style="fill:#000000;stroke:#a9a9a9;stroke-width:0.1" />
  </g>
  <g
     id="angle_177_5"
     transform="translate(-214.31256,2.6416664)">
    <path
       d="m 400,110 h 4 v 177 h -4 z"
       id="path1791"
       inkscape:connector-curvature="0"
       style="fill:#000000;stroke:#a9a9a9;stroke-width:0.1" />
    <path
       d="m 404,110 h 4 v 177 h -4 z"
       id="path1793"
       inkscape:connector-curvature="0"
       style="fill:#000000;stroke:#a9a9a9;stroke-width:0.1" />
    <path
       d="m 408,110 h 4 v 177 h -4 z"
       id="path1795"
       inkscape:connector-curvature="0"
       style="fill:#000000;stroke:#a9a9a9;stroke-width:0.1" />
    <path
       d="m 412,110 h 4 v 177 h -4 z"
       id="path1797"
       inkscape:connector-curvature="0"
       style="fill:#000000;stroke:#a9a9a9;stroke-width:0.1" />
  </g>
  <g
     id="angle_68_0"
     transform="rotate(90,345.73115,-103.1675)">
    <path
       d="m 525,110 h 4 v 68 h -4 z"
       id="path1836"
       inkscape:connector-curvature="0"
       style="fill:#000000;stroke:#a9a9a9;stroke-width:0.1" />
    <path
       d="m 529,110 h 4 v 68 h -4 z"
       id="path1838"
       inkscape:connector-curvature="0"
       style="fill:#000000;stroke:#a9a9a9;stroke-width:0.1" />
    <path
       d="m 533,110 h 4 v 68 h -4 z"
       id="path1840"
       inkscape:connector-curvature="0"
       style="fill:#000000;stroke:#a9a9a9;stroke-width:0.1" />
    <path
       d="m 537,110 h 4 v 68 h -4 z"
       id="path1842"
       inkscape:connector-curvature="0"
       style="fill:#000000;stroke:#a9a9a9;stroke-width:0.1" />
  </g>
  <g
     id="angle_68_1"
     transform="rotate(90,349.43532,-106.87167)">
    <path
       d="m 550,110 h 4 v 68 h -4 z"
       id="path1845"
       inkscape:connector-curvature="0"
       style="fill:#000000;stroke:#a9a9a9;stroke-width:0.1" />
    <path
       d="m 554,110 h 4 v 68 h -4 z"
       id="path1847"
       inkscape:connector-curvature="0"
       style="fill:#000000;stroke:#a9a9a9;stroke-width:0.1" />
    <path
       d="m 558,110 h 4 v 68 h -4 z"
       id="path1849"
       inkscape:connector-curvature="0"
       style="fill:#000000;stroke:#a9a9a9;stroke-width:0.1" />
    <path
       d="m 562,110 h 4 v 68 h -4 z"
       id="path1851"
       inkscape:connector-curvature="0"
       style="fill:#000000;stroke:#a9a9a9;stroke-width:0.1" />
  </g>
  <g
     id="angle_68_2"
     transform="rotate(90,405.78947,-93.109175)">
    <path
       d="m 575,110 h 4 v 68 h -4 z"
       id="path1854"
       inkscape:connector-curvature="0"
       style="fill:#000000;stroke:#a9a9a9;stroke-width:0.1" />
    <path
       d="m 579,110 h 4 v 68 h -4 z"
       id="path1856"
       inkscape:connector-curvature="0"
       style="fill:#000000;stroke:#a9a9a9;stroke-width:0.1" />
    <path
       d="m 583,110 h 4 v 68 h -4 z"
       id="path1858"
       inkscape:connector-curvature="0"
       style="fill:#000000;stroke:#a9a9a9;stroke-width:0.1" />
    <path
       d="m 587,110 h 4 v 68 h -4 z"
       id="path1860"
       inkscape:connector-curvature="0"
       style="fill:#000000;stroke:#a9a9a9;stroke-width:0.1" />
  </g>
  <g
     id="angle_68_3"
     transform="rotate(90,409.49364,-96.81335)">
    <path
       d="m 600,110 h 4 v 68 h -4 z"
       id="path1863"
       inkscape:connector-curvature="0"
       style="fill:#000000;stroke:#a9a9a9;stroke-width:0.1" />
    <path
       d="m 604,110 h 4 v 68 h -4 z"
       id="path1865"
       inkscape:connector-curvature="0"
       style="fill:#000000;stroke:#a9a9a9;stroke-width:0.1" />
    <path
       d="m 608,110 h 4 v 68 h -4 z"
       id="path1867"
       inkscape:connector-curvature="0"
       style="fill:#000000;stroke:#a9a9a9;stroke-width:0.1" />
    <path
       d="m 612,110 h 4 v 68 h -4 z"
       id="path1869"
       inkscape:connector-curvature="0"
       style="fill:#000000;stroke:#a9a9a9;stroke-width:0.1" />
  </g>
  <g
     id="angle_68_4"
     transform="translate(-455.91137,-104.54446)">
    <path
       d="m 625,110 h 4 v 68 h -4 z"
       id="path1872"
       inkscape:connector-curvature="0"
       style="fill:#000000;stroke:#a9a9a9;stroke-width:0.1" />
    <path
       d="m 629,110 h 4 v 68 h -4 z"
       id="path1874"
       inkscape:connector-curvature="0"
       style="fill:#000000;stroke:#a9a9a9;stroke-width:0.1" />
    <path
       d="m 633,110 h 4 v 68 h -4 z"
       id="path1876"
       inkscape:connector-curvature="0"
       style="fill:#000000;stroke:#a9a9a9;stroke-width:0.1" />
    <path
       d="m 637,110 h 4 v 68 h -4 z"
       id="path1878"
       inkscape:connector-curvature="0"
       style="fill:#000000;stroke:#a9a9a9;stroke-width:0.1" />
  </g>
  <g
     id="angle_68_5"
     transform="translate(-463.31972,-104.54446)">
    <path
       d="m 650,110 h 4 v 68 h -4 z"
       id="path1881"
       inkscape:connector-curvature="0"
       style="fill:#000000;stroke:#a9a9a9;stroke-width:0.1" />
    <path
       d="m 654,110 h 4 v 68 h -4 z"
       id="path1883"
       inkscape:connector-curvature="0"
       style="fill:#000000;stroke:#a9a9a9;stroke-width:0.1" />
    <path
       d="m 658,110 h 4 v 68 h -4 z"
       id="path1885"
       inkscape:connector-curvature="0"
       style="fill:#000000;stroke:#a9a9a9;stroke-width:0.1" />
    <path
       d="m 662,110 h 4 v 68 h -4 z"
       id="path1887"
       inkscape:connector-curvature="0"
       style="fill:#000000;stroke:#a9a9a9;stroke-width:0.1" />
  </g>
</svg>
