<?xml version="1.0" encoding="UTF-8" standalone="no"?>
<!-- Created with Inkscape (http://www.inkscape.org/) -->

<svg
   xmlns:dc="http://purl.org/dc/elements/1.1/"
   xmlns:cc="http://creativecommons.org/ns#"
   xmlns:rdf="http://www.w3.org/1999/02/22-rdf-syntax-ns#"
   xmlns:svg="http://www.w3.org/2000/svg"
   xmlns="http://www.w3.org/2000/svg"
   xmlns:sodipodi="http://sodipodi.sourceforge.net/DTD/sodipodi-0.dtd"
   xmlns:inkscape="http://www.inkscape.org/namespaces/inkscape"
   width="210mm"
   height="297mm"
   viewBox="0 0 210 297"
   version="1.1"
   id="svg2109"
   inkscape:version="0.92.3 (unknown)"
   sodipodi:docname="planetarium_base2.svg">
  <defs
     id="defs2103" />
  <sodipodi:namedview
     id="base"
     pagecolor="#ffffff"
     bordercolor="#666666"
     borderopacity="1.0"
     inkscape:pageopacity="0.0"
     inkscape:pageshadow="2"
     inkscape:zoom="0.35"
     inkscape:cx="-199.20697"
     inkscape:cy="570.698"
     inkscape:document-units="mm"
     inkscape:current-layer="layer1"
     showgrid="false"
     inkscape:window-width="1855"
     inkscape:window-height="1056"
     inkscape:window-x="65"
     inkscape:window-y="24"
     inkscape:window-maximized="1" />
  <metadata
     id="metadata2106">
    <rdf:RDF>
      <cc:Work
         rdf:about="">
        <dc:format>image/svg+xml</dc:format>
        <dc:type
           rdf:resource="http://purl.org/dc/dcmitype/StillImage" />
        <dc:title></dc:title>
      </cc:Work>
    </rdf:RDF>
  </metadata>
  <g
     inkscape:label="レイヤー 1"
     inkscape:groupmode="layer"
     id="layer1">
    <g
       id="angle_58_0"
       transform="translate(-414.03034,105.08334)">
      <path
         d="m 425,110 h 4 v 58 h -4 z"
         id="path1800"
         inkscape:connector-curvature="0"
         style="fill:#000000;stroke:#a9a9a9;stroke-width:0.1" />
      <path
         d="m 429,110 h 4 v 58 h -4 z"
         id="path1802"
         inkscape:connector-curvature="0"
         style="fill:#000000;stroke:#a9a9a9;stroke-width:0.1" />
      <path
         d="m 433,110 h 4 v 58 h -4 z"
         id="path1804"
         inkscape:connector-curvature="0"
         style="fill:#000000;stroke:#a9a9a9;stroke-width:0.1" />
      <path
         d="m 437,110 h 4 v 58 h -4 z"
         id="path1806"
         inkscape:connector-curvature="0"
         style="fill:#000000;stroke:#a9a9a9;stroke-width:0.1" />
    </g>
    <g
       id="angle_58_1"
       transform="translate(-421.4387,105.08334)">
      <path
         d="m 450,110 h 4 v 58 h -4 z"
         id="path1809"
         inkscape:connector-curvature="0"
         style="fill:#000000;stroke:#a9a9a9;stroke-width:0.1" />
      <path
         d="m 454,110 h 4 v 58 h -4 z"
         id="path1811"
         inkscape:connector-curvature="0"
         style="fill:#000000;stroke:#a9a9a9;stroke-width:0.1" />
      <path
         d="m 458,110 h 4 v 58 h -4 z"
         id="path1813"
         inkscape:connector-curvature="0"
         style="fill:#000000;stroke:#a9a9a9;stroke-width:0.1" />
      <path
         d="m 462,110 h 4 v 58 h -4 z"
         id="path1815"
         inkscape:connector-curvature="0"
         style="fill:#000000;stroke:#a9a9a9;stroke-width:0.1" />
    </g>
    <g
       id="angle_58_2"
       transform="translate(-428.84703,105.08334)">
      <path
         d="m 475,110 h 4 v 58 h -4 z"
         id="path1818"
         inkscape:connector-curvature="0"
         style="fill:#000000;stroke:#a9a9a9;stroke-width:0.1" />
      <path
         d="m 479,110 h 4 v 58 h -4 z"
         id="path1820"
         inkscape:connector-curvature="0"
         style="fill:#000000;stroke:#a9a9a9;stroke-width:0.1" />
      <path
         d="m 483,110 h 4 v 58 h -4 z"
         id="path1822"
         inkscape:connector-curvature="0"
         style="fill:#000000;stroke:#a9a9a9;stroke-width:0.1" />
      <path
         d="m 487,110 h 4 v 58 h -4 z"
         id="path1824"
         inkscape:connector-curvature="0"
         style="fill:#000000;stroke:#a9a9a9;stroke-width:0.1" />
    </g>
    <g
       id="angle_58_3"
       transform="translate(-436.25539,105.08334)">
      <path
         d="m 500,110 h 4 v 58 h -4 z"
         id="path1827"
         inkscape:connector-curvature="0"
         style="fill:#000000;stroke:#a9a9a9;stroke-width:0.1" />
      <path
         d="m 504,110 h 4 v 58 h -4 z"
         id="path1829"
         inkscape:connector-curvature="0"
         style="fill:#000000;stroke:#a9a9a9;stroke-width:0.1" />
      <path
         d="m 508,110 h 4 v 58 h -4 z"
         id="path1831"
         inkscape:connector-curvature="0"
         style="fill:#000000;stroke:#a9a9a9;stroke-width:0.1" />
      <path
         d="m 512,110 h 4 v 58 h -4 z"
         id="path1833"
         inkscape:connector-curvature="0"
         style="fill:#000000;stroke:#a9a9a9;stroke-width:0.1" />
    </g>
    <g
       id="plate0"
       transform="translate(-91.421833,98.821774)">
      <path
         d="m 100,15 h 12 l -12,12 z"
         id="path1890"
         inkscape:connector-curvature="0"
         style="fill:#d3d3d3;stroke:#000000;stroke-width:0.1" />
      <path
         d="M 100,15 V 3 l 12,12 z"
         id="path1892"
         inkscape:connector-curvature="0"
         style="fill:#d3d3d3;stroke:#000000;stroke-width:0.1" />
      <circle
         cx="102"
         cy="17"
         r="0.30000001"
         id="circle1894"
         style="fill:none;stroke:#000000;stroke-width:0.1" />
      <circle
         cx="102"
         cy="21"
         r="0.30000001"
         id="circle1896"
         style="fill:none;stroke:#000000;stroke-width:0.1" />
      <circle
         cx="102"
         cy="23"
         r="0.30000001"
         id="circle1898"
         style="fill:none;stroke:#000000;stroke-width:0.1" />
      <circle
         cx="108"
         cy="17"
         r="0.30000001"
         id="circle1900"
         style="fill:none;stroke:#000000;stroke-width:0.1" />
      <circle
         cx="102"
         cy="13"
         r="0.30000001"
         id="circle1902"
         style="fill:none;stroke:#000000;stroke-width:0.1" />
      <circle
         cx="102"
         cy="9"
         r="0.30000001"
         id="circle1904"
         style="fill:none;stroke:#000000;stroke-width:0.1" />
      <circle
         cx="102"
         cy="7"
         r="0.30000001"
         id="circle1906"
         style="fill:none;stroke:#000000;stroke-width:0.1" />
      <circle
         cx="108"
         cy="13"
         r="0.30000001"
         id="circle1908"
         style="fill:none;stroke:#000000;stroke-width:0.1" />
    </g>
    <g
       id="plate1"
       transform="translate(-91.421833,98.821774)">
      <path
         d="m 120,15 h 12 l -12,12 z"
         id="path1911"
         inkscape:connector-curvature="0"
         style="fill:#d3d3d3;stroke:#000000;stroke-width:0.1" />
      <path
         d="M 120,15 V 3 l 12,12 z"
         id="path1913"
         inkscape:connector-curvature="0"
         style="fill:#d3d3d3;stroke:#000000;stroke-width:0.1" />
      <circle
         cx="122"
         cy="17"
         r="0.30000001"
         id="circle1915"
         style="fill:none;stroke:#000000;stroke-width:0.1" />
      <circle
         cx="122"
         cy="21"
         r="0.30000001"
         id="circle1917"
         style="fill:none;stroke:#000000;stroke-width:0.1" />
      <circle
         cx="122"
         cy="23"
         r="0.30000001"
         id="circle1919"
         style="fill:none;stroke:#000000;stroke-width:0.1" />
      <circle
         cx="128"
         cy="17"
         r="0.30000001"
         id="circle1921"
         style="fill:none;stroke:#000000;stroke-width:0.1" />
      <circle
         cx="122"
         cy="13"
         r="0.30000001"
         id="circle1923"
         style="fill:none;stroke:#000000;stroke-width:0.1" />
      <circle
         cx="122"
         cy="9"
         r="0.30000001"
         id="circle1925"
         style="fill:none;stroke:#000000;stroke-width:0.1" />
      <circle
         cx="122"
         cy="7"
         r="0.30000001"
         id="circle1927"
         style="fill:none;stroke:#000000;stroke-width:0.1" />
      <circle
         cx="128"
         cy="13"
         r="0.30000001"
         id="circle1929"
         style="fill:none;stroke:#000000;stroke-width:0.1" />
    </g>
    <g
       id="plate2"
       transform="translate(-91.421833,98.821774)">
      <path
         d="m 140,15 h 12 l -12,12 z"
         id="path1932"
         inkscape:connector-curvature="0"
         style="fill:#d3d3d3;stroke:#000000;stroke-width:0.1" />
      <path
         d="M 140,15 V 3 l 12,12 z"
         id="path1934"
         inkscape:connector-curvature="0"
         style="fill:#d3d3d3;stroke:#000000;stroke-width:0.1" />
      <circle
         cx="142"
         cy="17"
         r="0.30000001"
         id="circle1936"
         style="fill:none;stroke:#000000;stroke-width:0.1" />
      <circle
         cx="142"
         cy="21"
         r="0.30000001"
         id="circle1938"
         style="fill:none;stroke:#000000;stroke-width:0.1" />
      <circle
         cx="142"
         cy="23"
         r="0.30000001"
         id="circle1940"
         style="fill:none;stroke:#000000;stroke-width:0.1" />
      <circle
         cx="148"
         cy="17"
         r="0.30000001"
         id="circle1942"
         style="fill:none;stroke:#000000;stroke-width:0.1" />
      <circle
         cx="142"
         cy="13"
         r="0.30000001"
         id="circle1944"
         style="fill:none;stroke:#000000;stroke-width:0.1" />
      <circle
         cx="142"
         cy="9"
         r="0.30000001"
         id="circle1946"
         style="fill:none;stroke:#000000;stroke-width:0.1" />
      <circle
         cx="142"
         cy="7"
         r="0.30000001"
         id="circle1948"
         style="fill:none;stroke:#000000;stroke-width:0.1" />
      <circle
         cx="148"
         cy="13"
         r="0.30000001"
         id="circle1950"
         style="fill:none;stroke:#000000;stroke-width:0.1" />
    </g>
    <g
       id="plate3"
       transform="translate(-91.421833,98.821774)">
      <path
         d="m 160,15 h 12 l -12,12 z"
         id="path1953"
         inkscape:connector-curvature="0"
         style="fill:#d3d3d3;stroke:#000000;stroke-width:0.1" />
      <path
         d="M 160,15 V 3 l 12,12 z"
         id="path1955"
         inkscape:connector-curvature="0"
         style="fill:#d3d3d3;stroke:#000000;stroke-width:0.1" />
      <circle
         cx="162"
         cy="17"
         r="0.30000001"
         id="circle1957"
         style="fill:none;stroke:#000000;stroke-width:0.1" />
      <circle
         cx="162"
         cy="21"
         r="0.30000001"
         id="circle1959"
         style="fill:none;stroke:#000000;stroke-width:0.1" />
      <circle
         cx="162"
         cy="23"
         r="0.30000001"
         id="circle1961"
         style="fill:none;stroke:#000000;stroke-width:0.1" />
      <circle
         cx="168"
         cy="17"
         r="0.30000001"
         id="circle1963"
         style="fill:none;stroke:#000000;stroke-width:0.1" />
      <circle
         cx="162"
         cy="13"
         r="0.30000001"
         id="circle1965"
         style="fill:none;stroke:#000000;stroke-width:0.1" />
      <circle
         cx="162"
         cy="9"
         r="0.30000001"
         id="circle1967"
         style="fill:none;stroke:#000000;stroke-width:0.1" />
      <circle
         cx="162"
         cy="7"
         r="0.30000001"
         id="circle1969"
         style="fill:none;stroke:#000000;stroke-width:0.1" />
      <circle
         cx="168"
         cy="13"
         r="0.30000001"
         id="circle1971"
         style="fill:none;stroke:#000000;stroke-width:0.1" />
    </g>
    <g
       id="plate4"
       transform="translate(-91.421833,98.821774)">
      <path
         d="m 180,15 h 12 l -12,12 z"
         id="path1974"
         inkscape:connector-curvature="0"
         style="fill:#d3d3d3;stroke:#000000;stroke-width:0.1" />
      <path
         d="M 180,15 V 3 l 12,12 z"
         id="path1976"
         inkscape:connector-curvature="0"
         style="fill:#d3d3d3;stroke:#000000;stroke-width:0.1" />
      <circle
         cx="182"
         cy="17"
         r="0.30000001"
         id="circle1978"
         style="fill:none;stroke:#000000;stroke-width:0.1" />
      <circle
         cx="182"
         cy="21"
         r="0.30000001"
         id="circle1980"
         style="fill:none;stroke:#000000;stroke-width:0.1" />
      <circle
         cx="182"
         cy="23"
         r="0.30000001"
         id="circle1982"
         style="fill:none;stroke:#000000;stroke-width:0.1" />
      <circle
         cx="188"
         cy="17"
         r="0.30000001"
         id="circle1984"
         style="fill:none;stroke:#000000;stroke-width:0.1" />
      <circle
         cx="182"
         cy="13"
         r="0.30000001"
         id="circle1986"
         style="fill:none;stroke:#000000;stroke-width:0.1" />
      <circle
         cx="182"
         cy="9"
         r="0.30000001"
         id="circle1988"
         style="fill:none;stroke:#000000;stroke-width:0.1" />
      <circle
         cx="182"
         cy="7"
         r="0.30000001"
         id="circle1990"
         style="fill:none;stroke:#000000;stroke-width:0.1" />
      <circle
         cx="188"
         cy="13"
         r="0.30000001"
         id="circle1992"
         style="fill:none;stroke:#000000;stroke-width:0.1" />
    </g>
    <g
       id="plate5"
       transform="translate(-91.421833,98.821774)">
      <path
         d="m 200,15 h 12 l -12,12 z"
         id="path1995"
         inkscape:connector-curvature="0"
         style="fill:#d3d3d3;stroke:#000000;stroke-width:0.1" />
      <path
         d="M 200,15 V 3 l 12,12 z"
         id="path1997"
         inkscape:connector-curvature="0"
         style="fill:#d3d3d3;stroke:#000000;stroke-width:0.1" />
      <circle
         cx="202"
         cy="17"
         r="0.30000001"
         id="circle1999"
         style="fill:none;stroke:#000000;stroke-width:0.1" />
      <circle
         cx="202"
         cy="21"
         r="0.30000001"
         id="circle2001"
         style="fill:none;stroke:#000000;stroke-width:0.1" />
      <circle
         cx="202"
         cy="23"
         r="0.30000001"
         id="circle2003"
         style="fill:none;stroke:#000000;stroke-width:0.1" />
      <circle
         cx="208"
         cy="17"
         r="0.30000001"
         id="circle2005"
         style="fill:none;stroke:#000000;stroke-width:0.1" />
      <circle
         cx="202"
         cy="13"
         r="0.30000001"
         id="circle2007"
         style="fill:none;stroke:#000000;stroke-width:0.1" />
      <circle
         cx="202"
         cy="9"
         r="0.30000001"
         id="circle2009"
         style="fill:none;stroke:#000000;stroke-width:0.1" />
      <circle
         cx="202"
         cy="7"
         r="0.30000001"
         id="circle2011"
         style="fill:none;stroke:#000000;stroke-width:0.1" />
      <circle
         cx="208"
         cy="13"
         r="0.30000001"
         id="circle2013"
         style="fill:none;stroke:#000000;stroke-width:0.1" />
    </g>
    <g
       id="plate6"
       transform="translate(-91.421833,98.821774)">
      <path
         d="m 220,15 h 12 l -12,12 z"
         id="path2016"
         inkscape:connector-curvature="0"
         style="fill:#d3d3d3;stroke:#000000;stroke-width:0.1" />
      <path
         d="M 220,15 V 3 l 12,12 z"
         id="path2018"
         inkscape:connector-curvature="0"
         style="fill:#d3d3d3;stroke:#000000;stroke-width:0.1" />
      <circle
         cx="222"
         cy="17"
         r="0.30000001"
         id="circle2020"
         style="fill:none;stroke:#000000;stroke-width:0.1" />
      <circle
         cx="222"
         cy="21"
         r="0.30000001"
         id="circle2022"
         style="fill:none;stroke:#000000;stroke-width:0.1" />
      <circle
         cx="222"
         cy="23"
         r="0.30000001"
         id="circle2024"
         style="fill:none;stroke:#000000;stroke-width:0.1" />
      <circle
         cx="228"
         cy="17"
         r="0.30000001"
         id="circle2026"
         style="fill:none;stroke:#000000;stroke-width:0.1" />
      <circle
         cx="222"
         cy="13"
         r="0.30000001"
         id="circle2028"
         style="fill:none;stroke:#000000;stroke-width:0.1" />
      <circle
         cx="222"
         cy="9"
         r="0.30000001"
         id="circle2030"
         style="fill:none;stroke:#000000;stroke-width:0.1" />
      <circle
         cx="222"
         cy="7"
         r="0.30000001"
         id="circle2032"
         style="fill:none;stroke:#000000;stroke-width:0.1" />
      <circle
         cx="228"
         cy="13"
         r="0.30000001"
         id="circle2034"
         style="fill:none;stroke:#000000;stroke-width:0.1" />
    </g>
    <g
       id="plate7"
       transform="translate(-91.421833,98.821774)">
      <path
         d="m 240,15 h 12 l -12,12 z"
         id="path2037"
         inkscape:connector-curvature="0"
         style="fill:#d3d3d3;stroke:#000000;stroke-width:0.1" />
      <path
         d="M 240,15 V 3 l 12,12 z"
         id="path2039"
         inkscape:connector-curvature="0"
         style="fill:#d3d3d3;stroke:#000000;stroke-width:0.1" />
      <circle
         cx="242"
         cy="17"
         r="0.30000001"
         id="circle2041"
         style="fill:none;stroke:#000000;stroke-width:0.1" />
      <circle
         cx="242"
         cy="21"
         r="0.30000001"
         id="circle2043"
         style="fill:none;stroke:#000000;stroke-width:0.1" />
      <circle
         cx="242"
         cy="23"
         r="0.30000001"
         id="circle2045"
         style="fill:none;stroke:#000000;stroke-width:0.1" />
      <circle
         cx="248"
         cy="17"
         r="0.30000001"
         id="circle2047"
         style="fill:none;stroke:#000000;stroke-width:0.1" />
      <circle
         cx="242"
         cy="13"
         r="0.30000001"
         id="circle2049"
         style="fill:none;stroke:#000000;stroke-width:0.1" />
      <circle
         cx="242"
         cy="9"
         r="0.30000001"
         id="circle2051"
         style="fill:none;stroke:#000000;stroke-width:0.1" />
      <circle
         cx="242"
         cy="7"
         r="0.30000001"
         id="circle2053"
         style="fill:none;stroke:#000000;stroke-width:0.1" />
      <circle
         cx="248"
         cy="13"
         r="0.30000001"
         id="circle2055"
         style="fill:none;stroke:#000000;stroke-width:0.1" />
    </g>
    <g
       id="latitude_gearbox_channel0"
       transform="translate(-91.421833,98.821774)">
      <path
         d="m 100,30 h 5 v 30 h -5 z"
         id="path2058"
         inkscape:connector-curvature="0"
         style="fill:#d3d3d3;stroke:#000000;stroke-width:0.1" />
      <path
         d="m 105,30 h 10 v 30 h -10 z"
         id="path2060"
         inkscape:connector-curvature="0"
         style="fill:#d3d3d3;stroke:#000000;stroke-width:0.1" />
      <path
         d="m 115,30 h 5 v 30 h -5 z"
         id="path2062"
         inkscape:connector-curvature="0"
         style="fill:#d3d3d3;stroke:#000000;stroke-width:0.1" />
    </g>
    <g
       id="latitude_gearbox_plate0"
       transform="translate(-91.421833,98.821774)">
      <path
         d="m 150,30 h 20 v 30 h -5 V 45 h -10 v 15 h -5 z"
         id="path2065"
         inkscape:connector-curvature="0"
         style="fill:#d3d3d3;stroke:#000000;stroke-width:0.1" />
    </g>
    <g
       id="latitude_gearbox_channel1"
       transform="translate(-91.421833,98.821774)">
      <path
         d="m 125,30 h 5 v 30 h -5 z"
         id="path2068"
         inkscape:connector-curvature="0"
         style="fill:#d3d3d3;stroke:#000000;stroke-width:0.1" />
      <path
         d="m 130,30 h 10 v 30 h -10 z"
         id="path2070"
         inkscape:connector-curvature="0"
         style="fill:#d3d3d3;stroke:#000000;stroke-width:0.1" />
      <path
         d="m 140,30 h 5 v 30 h -5 z"
         id="path2072"
         inkscape:connector-curvature="0"
         style="fill:#d3d3d3;stroke:#000000;stroke-width:0.1" />
    </g>
    <g
       id="latitude_gearbox_plate1"
       transform="translate(-91.421833,98.821774)">
      <path
         d="m 175,30 h 20 v 30 h -5 V 45 h -10 v 15 h -5 z"
         id="path2075"
         inkscape:connector-curvature="0"
         style="fill:#d3d3d3;stroke:#000000;stroke-width:0.1" />
    </g>
    <g
       id="latitude_motor"
       transform="translate(-76.17923,105.45503)">
      <path
         d="m 100,74 3,-3 v 0 l 3,3"
         id="path2078"
         inkscape:connector-curvature="0"
         style="fill:#ffffff;stroke:#000000;stroke-width:0.1" />
      <path
         d="m 106,74 3,3 v 0 l -3,3"
         id="path2080"
         inkscape:connector-curvature="0"
         style="fill:#ffffff;stroke:#000000;stroke-width:0.1" />
      <path
         d="m 100,80 -3,-3 v 0 l 3,-3"
         id="path2082"
         inkscape:connector-curvature="0"
         style="fill:#ffffff;stroke:#000000;stroke-width:0.1" />
      <path
         d="m 100,90 -3,-3 v -4 l 3,-3"
         id="path2084"
         inkscape:connector-curvature="0"
         style="fill:#ffffff;stroke:#000000;stroke-width:0.1" />
      <path
         d="m 100,74 h 6 v 6 h -6 z"
         id="path2086"
         inkscape:connector-curvature="0"
         style="fill:#000000;stroke:#a9a9a9;stroke-width:0.1" />
      <path
         d="m 100,80 h 6 v 10 h -6 z"
         id="path2088"
         inkscape:connector-curvature="0"
         style="fill:#000000;stroke:#a9a9a9;stroke-width:0.1" />
      <path
         d="m 106,80 h 6 v 10 h -6 z"
         id="path2090"
         inkscape:connector-curvature="0"
         style="fill:#000000;stroke:#a9a9a9;stroke-width:0.1" />
      <path
         d="m 112,80 h 6 v 10 h -6 z"
         id="path2092"
         inkscape:connector-curvature="0"
         style="fill:#000000;stroke:#a9a9a9;stroke-width:0.1" />
      <path
         d="m 118,80 h 6 v 10 h -6 z"
         id="path2094"
         inkscape:connector-curvature="0"
         style="fill:#000000;stroke:#a9a9a9;stroke-width:0.1" />
    </g>
    <g
       transform="translate(4.0813851,2.4896615)"
       id="shiitake">
      <path
         style="fill:#ffffff;stroke:#000000;stroke-width:0.1"
         inkscape:connector-curvature="0"
         d="m 58.506508,50 3.297151,-2.66998 3.978088,0.418114 2.66998,3.297151"
         id="path4673" />
      <path
         style="fill:#ffffff;stroke:#000000;stroke-width:0.1"
         inkscape:connector-curvature="0"
         d="m 52.628656,58.09017 3.558177,2.310708 0.831647,3.91259 -2.310708,3.558178"
         id="path4675" />
      <path
         style="fill:#ffffff;stroke:#000000;stroke-width:0.1"
         inkscape:connector-curvature="0"
         d="m 43.11809,55 -1.098076,4.098076 -3.464101,2 L 34.457836,60"
         id="path4677" />
      <path
         style="fill:#ffffff;stroke:#000000;stroke-width:0.1"
         inkscape:connector-curvature="0"
         d="M 43.11809,45 38.881264,45.222043 35.908685,42.54552 35.686642,38.308694"
         id="path4679" />
      <path
         style="fill:#ffffff;stroke:#000000;stroke-width:0.1"
         inkscape:connector-curvature="0"
         d="m 52.628656,41.90983 -1.520427,-3.960846 1.626947,-3.654182 3.960846,-1.520427"
         id="path4681" />
      <path
         style="fill:#ffffff;stroke:#000000;stroke-width:0.1"
         inkscape:connector-curvature="0"
         d="m 68.451727,51.045285 0.222043,-4.236827 2.972579,-2.676522 4.236826,0.222043"
         id="path4683" />
      <path
         style="fill:#ffffff;stroke:#000000;stroke-width:0.1"
         inkscape:connector-curvature="0"
         d="m 54.707772,67.871646 4.098077,-1.098076 3.464101,2 1.098077,4.098076"
         id="path4685" />
      <path
         style="fill:#ffffff;stroke:#000000;stroke-width:0.1"
         inkscape:connector-curvature="0"
         d="m 34.457836,60 2.310708,3.558178 -0.831647,3.91259 -3.558178,2.310708"
         id="path4687" />
      <path
         style="fill:#ffffff;stroke:#000000;stroke-width:0.1"
         inkscape:connector-curvature="0"
         d="m 35.686642,38.308694 -2.66998,3.297151 -3.978088,0.418114 -3.297151,-2.66998"
         id="path4689" />
      <path
         style="fill:#ffffff;stroke:#000000;stroke-width:0.1"
         inkscape:connector-curvature="0"
         d="m 56.696022,32.774375 -3.960846,-1.520426 -1.626947,-3.654182 1.520427,-3.960846"
         id="path4691" />
      <path
         style="fill:#ffffff;stroke:#000000;stroke-width:0.1"
         inkscape:connector-curvature="0"
         d="m 75.883175,44.353979 -3,-3 v -4 l 3,-3"
         id="path4693" />
      <path
         style="fill:#ffffff;stroke:#000000;stroke-width:0.1"
         inkscape:connector-curvature="0"
         d="m 75.883175,34.353979 1.098077,-4.098077 3.464101,-2 4.098076,1.098077"
         id="path4695" />
      <path
         style="fill:#ffffff;stroke:#000000;stroke-width:0.1"
         inkscape:connector-curvature="0"
         d="m 84.543429,29.353979 4.098077,-1.098077 3.464101,2 1.098076,4.098077"
         id="path4697" />
      <path
         style="fill:#ffffff;stroke:#000000;stroke-width:0.1"
         inkscape:connector-curvature="0"
         d="m 63.368027,72.871646 1.926118,-3.780221 3.804226,-1.236068 3.780221,1.926119"
         id="path4699" />
      <path
         style="fill:#ffffff;stroke:#000000;stroke-width:0.1"
         inkscape:connector-curvature="0"
         d="m 72.878592,69.781476 4.236826,-0.222043 2.972579,2.676523 0.222043,4.236826"
         id="path4701" />
      <path
         style="fill:#ffffff;stroke:#000000;stroke-width:0.1"
         inkscape:connector-curvature="0"
         d="m 80.31004,76.472782 2.310708,3.558178 -0.831647,3.91259 -3.558178,2.310708"
         id="path4703" />
      <path
         style="fill:#ffffff;stroke:#000000;stroke-width:0.1"
         inkscape:connector-curvature="0"
         d="m 78.230923,86.254258 -1.926119,3.780221 -3.804226,1.236068 -3.78022,-1.926119"
         id="path4705" />
      <path
         style="fill:#ffffff;stroke:#000000;stroke-width:0.1"
         inkscape:connector-curvature="0"
         d="m 32.378719,69.781476 4.190407,0.663695 2.351141,3.236068 -0.663695,4.190407"
         id="path4707" />
      <path
         style="fill:#ffffff;stroke:#000000;stroke-width:0.1"
         inkscape:connector-curvature="0"
         d="m 38.256572,77.871646 1.520426,3.960846 -1.626946,3.654182 -3.960846,1.520427"
         id="path4709" />
      <path
         style="fill:#ffffff;stroke:#000000;stroke-width:0.1"
         inkscape:connector-curvature="0"
         d="m 34.189206,87.007101 -2.669981,3.297151 -3.978087,0.418113 -3.297151,-2.66998"
         id="path4711" />
      <path
         style="fill:#ffffff;stroke:#000000;stroke-width:0.1"
         inkscape:connector-curvature="0"
         d="M 24.243987,88.052385 20.05358,87.38869 17.702439,84.152622 18.366134,79.962215"
         id="path4713" />
      <path
         style="fill:#ffffff;stroke:#000000;stroke-width:0.1"
         inkscape:connector-curvature="0"
         d="m 25.741423,39.353979 0.663695,4.190406 -2.351141,3.236068 -4.190406,0.663696"
         id="path4715" />
      <path
         style="fill:#ffffff;stroke:#000000;stroke-width:0.1"
         inkscape:connector-curvature="0"
         d="M 19.863571,47.444149 16.56642,50.114129 12.588332,49.696015 9.9183517,46.398864"
         id="path4717" />
      <path
         style="fill:#ffffff;stroke:#000000;stroke-width:0.1"
         inkscape:connector-curvature="0"
         d="M 9.9183517,46.398864 5.9575054,44.878437 4.3305588,41.224256 5.8509853,37.263409"
         id="path4719" />
      <path
         style="fill:#ffffff;stroke:#000000;stroke-width:0.1"
         inkscape:connector-curvature="0"
         d="M 5.8509853,37.263409 5.1872901,33.073003 7.5384311,29.836935 11.728838,29.173239"
         id="path4721" />
      <path
         style="fill:#ffffff;stroke:#000000;stroke-width:0.1"
         inkscape:connector-curvature="0"
         d="m 52.628656,23.638921 -3.780221,1.926118 -3.804226,-1.236068 -1.926119,-3.78022"
         id="path4723" />
      <path
         style="fill:#ffffff;stroke:#000000;stroke-width:0.1"
         inkscape:connector-curvature="0"
         d="m 43.11809,20.548751 -3.558177,-2.310708 -0.831647,-3.91259 2.310707,-3.558178"
         id="path4725" />
      <path
         style="fill:#ffffff;stroke:#000000;stroke-width:0.1"
         inkscape:connector-curvature="0"
         d="m 41.038973,10.767275 0.222043,-4.2368263 2.972579,-2.6765225 4.236827,0.2220427"
         id="path4727" />
      <path
         style="fill:#ffffff;stroke:#000000;stroke-width:0.1"
         inkscape:connector-curvature="0"
         d="m 48.470422,4.0759689 3.78022,-1.9261186 3.804226,1.236068 1.926119,3.7802205"
         id="path4729" />
      <path
         style="fill:#ffffff;stroke:#000000;stroke-width:0.1"
         inkscape:connector-curvature="0"
         d="m 84.543429,49.353979 1.926119,-3.780221 3.804226,-1.236068 3.78022,1.926119"
         id="path4731" />
      <path
         style="fill:#ffffff;stroke:#000000;stroke-width:0.1"
         inkscape:connector-curvature="0"
         d="m 94.053994,46.263809 2.310708,3.558178 -2.910763,13.694066 -3.558178,2.310708"
         id="path4733" />
      <path
         style="fill:#ffffff;stroke:#000000;stroke-width:0.1"
         inkscape:connector-curvature="0"
         d="m 61.28891,82.653122 4.190406,0.663695 2.351141,3.236068 -0.663695,4.190407"
         id="path4735" />
      <path
         style="fill:#ffffff;stroke:#000000;stroke-width:0.1"
         inkscape:connector-curvature="0"
         d="m 67.166762,90.743292 -2.66998,3.297151 -13.923307,1.463398 -3.297151,-2.66998"
         id="path4737" />
      <path
         style="fill:#ffffff;stroke:#000000;stroke-width:0.1"
         inkscape:connector-curvature="0"
         d="m 22.4335,70.826761 0.663696,4.190406 -2.351141,3.236068 -4.190407,0.663696"
         id="path4739" />
      <path
         style="fill:#ffffff;stroke:#000000;stroke-width:0.1"
         inkscape:connector-curvature="0"
         d="M 16.555648,78.916931 12.594802,77.396504 6.9004887,64.606868 8.4209151,60.646021"
         id="path4741" />
      <path
         style="fill:#ffffff;stroke:#000000;stroke-width:0.1"
         inkscape:connector-curvature="0"
         d="M 21.674057,30.218524 17.893836,32.144643 14.08961,30.908575 12.163492,27.128354"
         id="path4743" />
      <path
         style="fill:#ffffff;stroke:#000000;stroke-width:0.1"
         inkscape:connector-curvature="0"
         d="m 12.163492,27.128354 0.222042,-4.236826 10.404028,-9.367829 4.236826,0.222043"
         id="path4745" />
      <path
         style="fill:#ffffff;stroke:#000000;stroke-width:0.1"
         inkscape:connector-curvature="0"
         d="m 60.060104,16.947615 -3,-3 V 9.9476148 l 3,-3"
         id="path4747" />
      <path
         style="fill:#ffffff;stroke:#000000;stroke-width:0.1"
         inkscape:connector-curvature="0"
         d="m 60.060104,6.9476148 4.098076,-1.0980762 12.124356,7.0000004 1.098076,4.098076"
         id="path4749" />
      <path
         style="fill:#d3d3d3;stroke:#000000;stroke-width:0.1"
         inkscape:connector-curvature="0"
         d="M 58.506508,50 52.628656,58.09017 43.11809,55 V 45 l 9.510566,-3.09017 z"
         id="path4751" />
      <path
         style="fill:#d3d3d3;stroke:#000000;stroke-width:0.1"
         inkscape:connector-curvature="0"
         d="M 52.628656,58.09017 58.506508,50 l 9.945219,1.045285 4.067366,9.135454 -5.877852,8.09017 -9.945219,-1.045284 z"
         id="path4753" />
      <path
         style="fill:#d3d3d3;stroke:#000000;stroke-width:0.1"
         inkscape:connector-curvature="0"
         d="m 43.11809,55 9.510566,3.09017 2.079116,9.781476 -7.431448,6.691306 -9.510565,-3.09017 -2.079117,-9.781476 z"
         id="path4755" />
      <path
         style="fill:#d3d3d3;stroke:#000000;stroke-width:0.1"
         inkscape:connector-curvature="0"
         d="m 43.11809,45 v 10 l -8.660254,5 -8.660254,-5 V 45 l 8.660254,-5 z"
         id="path4757" />
      <path
         style="fill:#d3d3d3;stroke:#000000;stroke-width:0.1"
         inkscape:connector-curvature="0"
         d="M 52.628656,41.90983 43.11809,45 l -7.431448,-6.691306 2.079117,-9.781476 9.510565,-3.09017 7.431448,6.691306 z"
         id="path4759" />
      <path
         style="fill:#d3d3d3;stroke:#000000;stroke-width:0.1"
         inkscape:connector-curvature="0"
         d="m 58.506508,50 -5.877852,-8.09017 4.067366,-9.135455 9.945219,-1.045284 5.877852,8.09017 -4.067366,9.135454 z"
         id="path4761" />
      <path
         style="fill:#d3d3d3;stroke:#000000;stroke-width:0.1"
         inkscape:connector-curvature="0"
         d="m 72.519093,60.180739 -4.067366,-9.135454 7.431448,-6.691306 8.660254,5 -2.079117,9.781476 z"
         id="path4763" />
      <path
         style="fill:#d3d3d3;stroke:#000000;stroke-width:0.1"
         inkscape:connector-curvature="0"
         d="m 47.276324,74.562952 7.431448,-6.691306 8.660255,5 -2.079117,9.781476 -9.945219,1.045285 z"
         id="path4765" />
      <path
         style="fill:#d3d3d3;stroke:#000000;stroke-width:0.1"
         inkscape:connector-curvature="0"
         d="m 25.797582,55 8.660254,5 -2.079117,9.781476 -9.945219,1.045285 -4.067366,-9.135455 z"
         id="path4767" />
      <path
         style="fill:#d3d3d3;stroke:#000000;stroke-width:0.1"
         inkscape:connector-curvature="0"
         d="m 37.765759,28.527218 -2.079117,9.781476 -9.945219,1.045285 -4.067366,-9.135455 7.431448,-6.691306 z"
         id="path4769" />
      <path
         style="fill:#d3d3d3;stroke:#000000;stroke-width:0.1"
         inkscape:connector-curvature="0"
         d="m 66.641241,31.729091 -9.945219,1.045284 -4.067366,-9.135454 7.431448,-6.691306 8.660254,5 z"
         id="path4771" />
      <path
         style="fill:#d3d3d3;stroke:#000000;stroke-width:0.1"
         inkscape:connector-curvature="0"
         d="m 84.543429,49.353979 -8.660254,-5 v -10 l 8.660254,-5 8.660254,5 v 10 z"
         id="path4773" />
      <path
         style="fill:#d3d3d3;stroke:#000000;stroke-width:0.1"
         inkscape:connector-curvature="0"
         d="m 61.28891,82.653122 2.079117,-9.781476 9.510565,-3.09017 7.431448,6.691306 -2.079117,9.781476 -9.510565,3.09017 z"
         id="path4775" />
      <path
         style="fill:#d3d3d3;stroke:#000000;stroke-width:0.1"
         inkscape:connector-curvature="0"
         d="m 22.4335,70.826761 9.945219,-1.045285 5.877853,8.09017 -4.067366,9.135455 -9.945219,1.045284 -5.877853,-8.09017 z"
         id="path4777" />
      <path
         style="fill:#d3d3d3;stroke:#000000;stroke-width:0.1"
         inkscape:connector-curvature="0"
         d="m 21.674057,30.218524 4.067366,9.135455 -5.877852,8.09017 -9.9452193,-1.045285 -4.0673664,-9.135455 5.8778527,-8.09017 z"
         id="path4779" />
      <path
         style="fill:#d3d3d3;stroke:#000000;stroke-width:0.1"
         inkscape:connector-curvature="0"
         d="m 60.060104,16.947615 -7.431448,6.691306 -9.510566,-3.09017 -2.079117,-9.781476 7.431449,-6.6913061 9.510565,3.0901699 z"
         id="path4781" />
      <path
         style="fill:#d3d3d3;stroke:#000000;stroke-width:0.1"
         inkscape:connector-curvature="0"
         d="m 82.464312,59.135455 2.079117,-9.781476 9.510565,-3.09017 -4.158233,19.562952 z"
         id="path4783" />
      <path
         style="fill:#d3d3d3;stroke:#000000;stroke-width:0.1"
         inkscape:connector-curvature="0"
         d="m 51.343691,83.698407 9.945219,-1.045285 5.877852,8.09017 -19.890438,2.090569 z"
         id="path4785" />
      <path
         style="fill:#d3d3d3;stroke:#000000;stroke-width:0.1"
         inkscape:connector-curvature="0"
         d="m 18.366134,61.691306 4.067366,9.135455 -5.877852,8.09017 -8.1347329,-18.27091 z"
         id="path4787" />
      <path
         style="fill:#d3d3d3;stroke:#000000;stroke-width:0.1"
         inkscape:connector-curvature="0"
         d="m 29.105505,23.527218 -7.431448,6.691306 -9.510565,-3.09017 14.862896,-13.382612 z"
         id="path4789" />
      <path
         style="fill:#d3d3d3;stroke:#000000;stroke-width:0.1"
         inkscape:connector-curvature="0"
         d="m 68.720358,21.947615 -8.660254,-5 V 6.9476148 L 77.380612,16.947615 Z"
         id="path4791" />
      <circle
         style="fill:#ffffff;stroke:#000000;stroke-width:0.1"
         cx="50"
         cy="50"
         r="4"
         id="circle4793" />
      <circle
         style="fill:#ffffff;stroke:#000000;stroke-width:0.1"
         cx="62.573875"
         cy="59.135456"
         r="4"
         id="circle4795" />
      <circle
         style="fill:#ffffff;stroke:#000000;stroke-width:0.1"
         cx="45.197208"
         cy="64.781479"
         r="4"
         id="circle4797" />
      <circle
         style="fill:#ffffff;stroke:#000000;stroke-width:0.1"
         cx="34.457836"
         cy="50"
         r="4"
         id="circle4799" />
      <circle
         style="fill:#ffffff;stroke:#000000;stroke-width:0.1"
         cx="45.197208"
         cy="35.218525"
         r="4"
         id="circle4801" />
      <circle
         style="fill:#ffffff;stroke:#000000;stroke-width:0.1"
         cx="62.573875"
         cy="40.864544"
         r="4"
         id="circle4803" />
      <circle
         style="fill:#ffffff;stroke:#000000;stroke-width:0.1"
         cx="76.772346"
         cy="52.813889"
         r="4"
         id="circle4805" />
      <circle
         style="fill:#ffffff;stroke:#000000;stroke-width:0.1"
         cx="55.596943"
         cy="76.331558"
         r="4"
         id="circle4807" />
      <circle
         style="fill:#ffffff;stroke:#000000;stroke-width:0.1"
         cx="26.686754"
         cy="63.459908"
         r="4"
         id="circle4809" />
      <circle
         style="fill:#ffffff;stroke:#000000;stroke-width:0.1"
         cx="29.994677"
         cy="31.987127"
         r="4"
         id="circle4811" />
      <circle
         style="fill:#ffffff;stroke:#000000;stroke-width:0.1"
         cx="60.949276"
         cy="25.407524"
         r="4"
         id="circle4813" />
      <circle
         style="fill:#ffffff;stroke:#000000;stroke-width:0.1"
         cx="84.543427"
         cy="39.353977"
         r="4"
         id="circle4815" />
      <circle
         style="fill:#ffffff;stroke:#000000;stroke-width:0.1"
         cx="70.799477"
         cy="79.56295"
         r="4"
         id="circle4817" />
      <circle
         style="fill:#ffffff;stroke:#000000;stroke-width:0.1"
         cx="28.311354"
         cy="78.916931"
         r="4"
         id="circle4819" />
      <circle
         style="fill:#ffffff;stroke:#000000;stroke-width:0.1"
         cx="15.796205"
         cy="38.308693"
         r="4"
         id="circle4821" />
      <circle
         style="fill:#ffffff;stroke:#000000;stroke-width:0.1"
         cx="50.549538"
         cy="13.857445"
         r="4"
         id="circle4823" />
    </g>
  </g>
</svg>
